<?xml version="1.0" encoding="UTF-8" standalone="no"?>
<svg width="345px" height="154px" viewBox="0 0 345 154" version="1.1" xmlns="http://www.w3.org/2000/svg" xmlns:xlink="http://www.w3.org/1999/xlink" xmlns:sketch="http://www.bohemiancoding.com/sketch/ns">
    <!-- Generator: Sketch 3.1 (8751) - http://www.bohemiancoding.com/sketch -->
    <title>Artboard 7</title>
    <desc>Created with Sketch.</desc>
    <defs>
        <filter x="-50%" y="-50%" width="200%" height="200%" filterUnits="objectBoundingBox" id="filter-1">
            <feOffset dx="0" dy="2" in="SourceAlpha" result="shadowOffsetOuter1"></feOffset>
            <feGaussianBlur stdDeviation="2" in="shadowOffsetOuter1" result="shadowBlurOuter1"></feGaussianBlur>
            <feColorMatrix values="0 0 0 0 0   0 0 0 0 0   0 0 0 0 0  0 0 0 0.35 0" in="shadowBlurOuter1" type="matrix" result="shadowMatrixOuter1"></feColorMatrix>
            <feMerge>
                <feMergeNode in="shadowMatrixOuter1"></feMergeNode>
                <feMergeNode in="SourceGraphic"></feMergeNode>
            </feMerge>
        </filter>
        <filter x="-50%" y="-50%" width="200%" height="200%" filterUnits="objectBoundingBox" id="filter-2">
            <feOffset dx="0" dy="2" in="SourceAlpha" result="shadowOffsetOuter1"></feOffset>
            <feGaussianBlur stdDeviation="2" in="shadowOffsetOuter1" result="shadowBlurOuter1"></feGaussianBlur>
            <feColorMatrix values="0 0 0 0 0   0 0 0 0 0   0 0 0 0 0  0 0 0 0.35 0" in="shadowBlurOuter1" type="matrix" result="shadowMatrixOuter1"></feColorMatrix>
            <feMerge>
                <feMergeNode in="shadowMatrixOuter1"></feMergeNode>
                <feMergeNode in="SourceGraphic"></feMergeNode>
            </feMerge>
        </filter>
    </defs>
    <g id="Page-1" stroke="none" stroke-width="1" fill="none" fill-rule="evenodd" sketch:type="MSPage">
        <g id="Artboard-7" sketch:type="MSArtboardGroup">
            <g id="Group" sketch:type="MSLayerGroup" transform="translate(35.000000, 19.000000)">
                <circle id="Oval-46" fill="#7EC0EE" sketch:type="MSShapeGroup" cx="58" cy="58" r="58"></circle>
                <path d="M57.9999986,108.000001 C10.9999974,108.181615 1.24258358,70.2205097 1.81515798,72.4529231 C8.23739059,97.492601 30.957378,116 58,116 C85.2315973,116 108.079935,97.2330358 114.317087,71.9270344 C114.885393,69.6212473 105,107.818388 57.9999986,108.000001 Z" id="Oval-47" fill="#72AFDA" sketch:type="MSShapeGroup"></path>
                <path d="M79.7427313,72.4808693 C89.3004144,72.2832736 96.9869666,64.5474491 96.9869666,55.0334322 C96.9869666,45.3953405 89.0986224,37.5821234 79.3678567,37.5821234 C79.0033751,37.5821234 78.6414785,37.5930853 78.2824845,37.6146945 C74.740884,27.6469388 65.1510352,20.502119 53.8763785,20.502119 C39.5907863,20.502119 28.0100257,31.9725866 28.0100257,46.1221256 C28.0100257,47.1136313 28.0668904,48.091982 28.1775659,49.0541528 C22.9188173,50.3145403 19.0130334,55.0069913 19.0130334,60.6029989 C19.0130334,67.1651039 24.383821,72.484741 31.0090232,72.484741 L79.7427313,72.484741 L79.7427313,72.4808693 Z" id="Oval-1" fill="#FFFFFF" filter="url(#filter-1)" sketch:type="MSShapeGroup"></path>
                <path d="M96.1947286,60.1337725 C96.7095997,58.4943066 95.8812132,70.167396 57.643996,70.167395 C19.4067788,70.167394 19.0130334,57.2853947 19.0130334,60.5134791 C19.0130334,67.0755842 24.383821,72.3952213 31.0090232,72.3952213 L79.7427313,72.3952213 C87.4848398,72.2312891 93.999177,67.1249046 96.1947286,60.1337725 Z" id="Oval-2" fill="#EEEEEE" sketch:type="MSShapeGroup"></path>
                <path d="M56.1955201,47.3269136 C56.8860366,44.9227406 59.4639291,42.9737733 61.9767906,42.9737733 L78.096049,42.9737733 C80.5984401,42.9737733 81.7685988,44.8184724 80.7181637,47.0757755 L75.3232532,58.6690171 C74.2690161,60.9344904 75.4420764,62.7710193 77.9428463,62.7710193 L79.9410988,62.7710193 C82.4420972,62.7710193 83.1570773,64.3082796 81.5291627,66.2149976 L57.3153248,94.5757961 C55.6913899,96.4778527 53.7917957,96.0783172 53.2738359,93.6315447 C53.2738359,93.6315447 53.1734662,94.54546 53.1734662,92.3795174 C53.1734662,90.2135749 57.3320594,77.2048362 57.3320594,77.2048362 C58.0732827,74.8334558 56.63804,72.9110721 54.1490524,72.9110721 L53.3724564,72.9110721 C50.873307,72.9110721 49.4048901,70.9698692 50.0976366,68.5579318 L56.1955201,47.3269136 Z" id="Path-3" fill="#FFED5D" filter="url(#filter-2)" sketch:type="MSShapeGroup"></path>
            </g>
            <g id="wee-+-app-+-weather-2" sketch:type="MSLayerGroup" transform="translate(160.375000, 42.000000)" font-weight="normal" font-family="SnapHand" letter-spacing="0.5" fill="#7EC0EE" font-size="32">
                <text id="wee" sketch:type="MSTextLayer">
                    <tspan x="0" y="19">we</tspan>
                    <tspan x="35.336" y="19">e</tspan>
                </text>
                <text id="app" sketch:type="MSTextLayer">
                    <tspan x="107" y="64">app</tspan>
                </text>
                <text id="weather" sketch:type="MSTextLayer">
                    <tspan x="26" y="41">weather</tspan>
                </text>
            </g>
        </g>
    </g>
</svg>